<svg xmlns="http://www.w3.org/2000/svg" version="1.1" xmlns:xlink="http://www.w3.org/1999/xlink" viewBox="0 0 220 245" width="220" height="245" fill="none"><path d="M14.5589,164.7274C5.2967,148.6096,0,129.9234,0,110,0,49.2487,49.2487,0,110,0s110,49.2487,110,110c0,20.0586-5.3689,38.8632-14.748,55.0552l-190.6931-.3278Z" fill="none"></path><g fill="none" stroke-width="0.5" stroke-linecap="butt"><path d="M31.8145,64.3924l-12.5627-7.253" stroke="#fc1484"></path><path d="M110.2255,31.2336V4.6702" stroke="#f5a623"></path><path d="M174.4747,72.6224l26.6597-15.3919" stroke="#6dbebf"></path></g><g stroke="none"><path d="M25.1449,65.1604l-7.8217-4.5158C1.0679,91.4936,.5203,129.7554,19.2431,162.1841l-.0406-.3084c-14.0813-33.5175-11.9978-69.7327,5.9424-96.7153Z" fill="#2387e2"></path><path d="M106.2255,4.745c-16.5541,.6089-33.2051,5.1472-48.5497,14.0065-16.5527,9.5566-29.5166,22.9407-38.4241,38.3877l8.1965,4.7322c7.0425-9.5853,16.1881-17.8798,27.4637-24.2736,16.1538-9.16,33.9923-12.8843,51.3135-11.7545V4.745Z" fill="#fc1484"></path><path d="M199.0645,53.8066C179.2813,22.2909,145.2283,4.7195,110.2255,4.6702V26.1936c26.4244,2.8778,51.228,17.0771,66.4696,40.528l22.3694-12.915Z" fill="#f5a623"></path><path d="M201.1344,57.2305l-22.3293,12.8918c.0073,.0126,.0153,.0248,.0227,.0374,11.402,19.8312,12.2809,44.9971,.02,66.2336-1.9507,3.3787-4.1538,6.5209-6.5719,9.4163l28.9064,16.2815c18.0334-31.3837,19.3337-71.2517-.0479-104.8605Z" fill="#6dbebf"></path></g><g fill="#000000"><path d="M 98, 110a 12,12 0 1,0 24,0a 12,12 0 1,0 -24,0M 103, 110a 7,7 0 1,0 14,0a 7,7 0 1,0 -14,0" fill-rule="evenodd"></path><polygon points="59.1813 139.0943 59.1813 139.0943 98.8572 108.491 105.5448 120.0899 59.1813 139.0943" transform="matrix(-0.5882300549405878,0.8086936394362163,-0.8086936394362163,-0.5882300549405878,263.66160638144845,85.74900570548087)"></polygon></g><path d="M98.44999999999999 130L101.08 130L102.25999999999999 132.42L103.27 130L105.88 130L103.44999999999999 134.64999999999998L105.97999999999999 139.51L103.35 139.51L102.14999999999999 137.01L101 139.51L98.36 139.51L100.77999999999999 134.68L98.44999999999999 130ZM108.89999999999999 140.26L109.50999999999999 138.42L111.5 130L114.07 130L110.94 140.93Q110.83 141.29 110.64999999999999 141.70999999999998Q110.46 142.13 110.16 142.5Q109.85999999999999 142.88 109.39999999999999 143.10999999999999Q108.94 143.35 108.3 143.35L108.3 143.35Q107.97999999999999 143.35 107.78 143.31Q107.58 143.26999999999998 107.28 143.18L107.28 143.18L107.28 141.26999999999998Q107.35999999999999 141.26999999999998 107.42999999999999 141.26999999999998Q107.50999999999999 141.28 107.58 141.28L107.58 141.28Q107.99 141.28 108.24 141.17Q108.49 141.06 108.63999999999999 140.82999999999998Q108.78999999999999 140.6 108.89999999999999 140.26L108.89999999999999 140.26ZM106.36999999999999 130L109 130L110.47999999999999 136.82L110.80999999999999 139.6L109.14999999999999 139.76L106.36999999999999 130ZM115.6 137.45999999999998L121.63999999999999 137.45999999999998L121.63999999999999 139.51L115.6 139.51L115.6 137.45999999999998ZM121.58 130L121.58 131.48999999999998L116.57 139.51L114.92999999999999 139.51L114.92999999999999 137.95999999999998L119.91999999999999 130L121.58 130ZM115.02 130L120.72 130L120.72 132.04999999999998L115.02 132.04999999999998L115.02 130Z " fill="#000000"></path><path d="M91.175 151.57L91.175 151.57L91.175 151.51Q91.175 150.23 91.43499999999999 149.2Q91.68499999999999 148.17 92.07499999999999 147.39Q92.475 146.60999999999999 92.895 146.08999999999997Q93.315 145.57999999999998 93.65499999999999 145.35L93.65499999999999 145.35L93.865 146.07Q93.595 146.32999999999998 93.30499999999999 146.79Q93.01499999999999 147.26 92.76499999999999 147.93Q92.51499999999999 148.60999999999999 92.365 149.5Q92.21499999999999 150.39 92.21499999999999 151.5L92.21499999999999 151.5L92.21499999999999 151.57999999999998Q92.21499999999999 152.69 92.365 153.58999999999997Q92.51499999999999 154.48 92.76499999999999 155.16Q93.01499999999999 155.83999999999997 93.30499999999999 156.32Q93.595 156.79999999999998 93.865 157.07999999999998L93.865 157.07999999999998L93.65499999999999 157.73Q93.315 157.51 92.895 156.98999999999998Q92.475 156.48 92.07499999999999 155.7Q91.68499999999999 154.93 91.43499999999999 153.89Q91.175 152.85 91.175 151.57ZM99.315 157.42L98.27499999999999 157.42L98.27499999999999 149.85999999999999L98.365 148.64L99.315 148.64L99.315 157.42ZM94.73499999999999 152.10999999999999L94.73499999999999 152.10999999999999L94.73499999999999 151.51999999999998Q94.73499999999999 150.73999999999998 94.88499999999999 150.17Q95.035 149.60999999999999 95.30499999999999 149.23999999999998Q95.585 148.87 95.98499999999999 148.7Q96.37499999999999 148.51999999999998 96.88499999999999 148.51999999999998L96.88499999999999 148.51999999999998Q97.38499999999999 148.51999999999998 97.74499999999999 148.72Q98.10499999999999 148.92 98.345 149.29999999999998Q98.595 149.68 98.73499999999999 150.20999999999998Q98.875 150.75 98.925 151.42L98.925 151.42L98.925 152.20999999999998Q98.875 152.88 98.725 153.42Q98.585 153.95 98.345 154.32Q98.095 154.7 97.73499999999999 154.89999999999998Q97.37499999999999 155.1 96.87499999999999 155.1L96.87499999999999 155.1Q96.37499999999999 155.1 95.98499999999999 154.91Q95.585 154.73 95.315 154.35999999999999Q95.035 153.98 94.88499999999999 153.42Q94.73499999999999 152.85999999999999 94.73499999999999 152.10999999999999ZM95.77499999999999 151.51999999999998L95.77499999999999 151.51999999999998L95.77499999999999 152.10999999999999Q95.77499999999999 152.64 95.85499999999999 153.04Q95.945 153.43 96.10499999999999 153.69Q96.27499999999999 153.95 96.535 154.07999999999998Q96.79499999999999 154.20999999999998 97.145 154.20999999999998L97.145 154.20999999999998Q97.585 154.20999999999998 97.865 154Q98.145 153.77999999999997 98.315 153.42Q98.49499999999999 153.06 98.595 152.64999999999998L98.595 152.64999999999998L98.595 150.98999999999998Q98.535 150.69 98.425 150.41Q98.30499999999999 150.13 98.13499999999999 149.89999999999998Q97.955 149.68 97.71499999999999 149.54999999999998Q97.475 149.41 97.15499999999999 149.41L97.15499999999999 149.41Q96.80499999999999 149.41 96.535 149.54999999999998Q96.27499999999999 149.68 96.10499999999999 149.94Q95.945 150.2 95.85499999999999 150.6Q95.77499999999999 151 95.77499999999999 151.51999999999998ZM102.20499999999998 154.98L102.26499999999999 153.85999999999999L103.66499999999999 148.64L104.345 148.64L104.26499999999999 149.68L102.865 154.98L102.20499999999998 154.98ZM100.48499999999999 148.64L101.505 148.64L102.68499999999999 153.91L102.71499999999999 154.98L102.02499999999999 154.98L100.48499999999999 148.64ZM105.45499999999998 154.98L105.54499999999999 153.87L106.65499999999999 148.64L107.675 148.64L106.125 154.98L105.45499999999998 154.98ZM103.77499999999999 148.64L104.48499999999999 148.64L105.85499999999999 153.76999999999998L105.945 154.98L105.30499999999999 154.98L103.85499999999999 149.67L103.77499999999999 148.64ZM111.035 155.1L111.035 155.1Q110.46499999999999 155.1 110.005 154.93Q109.55499999999999 154.76 109.225 154.41Q108.90499999999999 154.06 108.73499999999999 153.52999999999997Q108.565 152.98999999999998 108.565 152.26999999999998L108.565 152.26999999999998L108.565 151.54999999999998Q108.565 150.70999999999998 108.76499999999999 150.13Q108.95499999999998 149.54999999999998 109.29499999999999 149.2Q109.625 148.85 110.04499999999999 148.68Q110.475 148.51999999999998 110.91499999999999 148.51999999999998L110.91499999999999 148.51999999999998Q111.51499999999999 148.51999999999998 111.93499999999999 148.72Q112.35499999999999 148.91 112.625 149.29Q112.88499999999999 149.67 113.01499999999999 150.23Q113.13499999999999 150.77999999999997 113.13499999999999 151.51L113.13499999999999 151.51L113.13499999999999 152.10999999999999L109.175 152.10999999999999L109.175 151.23L112.10499999999999 151.23L112.10499999999999 151.07999999999998Q112.07499999999999 150.58999999999997 111.96499999999999 150.22Q111.865 149.83999999999997 111.615 149.63Q111.365 149.41 110.91499999999999 149.41L110.91499999999999 149.41Q110.625 149.41 110.38499999999999 149.51Q110.145 149.60999999999999 109.975 149.83999999999997Q109.79499999999999 150.07999999999998 109.70499999999998 150.5Q109.60499999999999 150.91 109.60499999999999 151.54999999999998L109.60499999999999 151.54999999999998L109.60499999999999 152.26999999999998Q109.60499999999999 152.77999999999997 109.70499999999998 153.14Q109.79499999999999 153.51 109.98499999999999 153.75Q110.175 153.98 110.45499999999998 154.1Q110.73499999999999 154.20999999999998 111.095 154.20999999999998L111.095 154.20999999999998Q111.615 154.20999999999998 111.95499999999998 154.01Q112.29499999999999 153.81 112.54499999999999 153.48999999999998L112.54499999999999 153.48999999999998L113.095 154.14Q112.925 154.38 112.645 154.6Q112.375 154.82 111.98499999999999 154.95999999999998Q111.585 155.1 111.035 155.1ZM115.395 148.64L115.425 149.64L115.425 154.98L114.395 154.98L114.395 148.64L115.395 148.64ZM117.005 148.60999999999999L117.005 148.60999999999999L117.01499999999999 149.60999999999999Q116.88499999999999 149.57999999999998 116.77499999999999 149.57Q116.675 149.57 116.54499999999999 149.57L116.54499999999999 149.57Q116.24499999999999 149.57 116.02499999999999 149.68Q115.80499999999999 149.79999999999998 115.65499999999999 150.01Q115.49499999999999 150.22 115.395 150.51Q115.30499999999999 150.79999999999998 115.27499999999999 151.14999999999998L115.27499999999999 151.14999999999998L115.005 151.32Q115.005 150.75 115.095 150.25Q115.18499999999999 149.73999999999998 115.375 149.35Q115.565 148.95999999999998 115.875 148.73999999999998Q116.175 148.51999999999998 116.595 148.51999999999998L116.595 148.51999999999998Q116.68499999999999 148.51999999999998 116.82499999999999 148.54999999999998Q116.96499999999999 148.57999999999998 117.005 148.60999999999999ZM117.40499999999999 148.64L120.365 148.64L120.365 149.47L117.40499999999999 149.47L117.40499999999999 148.64ZM118.375 153.39999999999998L118.375 147.1L119.40499999999999 147.1L119.40499999999999 153.41Q119.40499999999999 153.73 119.48499999999999 153.89999999999998Q119.565 154.06 119.68499999999999 154.10999999999999Q119.815 154.17 119.95499999999998 154.17L119.95499999999998 154.17Q120.05499999999999 154.17 120.18499999999999 154.14Q120.315 154.10999999999999 120.365 154.1L120.365 154.1L120.35499999999999 154.98Q120.255 155.01999999999998 120.07499999999999 155.06Q119.895 155.1 119.625 155.1L119.625 155.1Q119.29499999999999 155.1 119.005 154.94Q118.725 154.77999999999997 118.54499999999999 154.41Q118.375 154.04 118.375 153.39999999999998L118.375 153.39999999999998ZM122.70499999999998 155.54999999999998L123.065 154.32L124.48499999999999 148.64L125.585 148.64L123.49499999999999 155.95999999999998Q123.41499999999999 156.19 123.285 156.47Q123.16499999999999 156.73999999999998 122.96499999999999 156.98Q122.77499999999999 157.23 122.505 157.39Q122.23499999999999 157.54 121.875 157.54L121.875 157.54Q121.76499999999999 157.54 121.585 157.51Q121.41499999999999 157.47 121.345 157.45L121.345 157.45L121.345 156.57Q121.375 156.57 121.45499999999998 156.57999999999998Q121.52499999999999 156.58999999999997 121.565 156.58999999999997L121.565 156.58999999999997Q121.865 156.58999999999997 122.085 156.48999999999998Q122.29499999999999 156.39999999999998 122.445 156.17Q122.60499999999999 155.95 122.70499999999998 155.54999999999998L122.70499999999998 155.54999999999998ZM121.02499999999999 148.64L122.15499999999999 148.64L123.41499999999999 153.56L123.685 154.7L122.945 155.1L121.02499999999999 148.64ZM128.825 151.51L128.825 151.51L128.825 151.57Q128.825 152.85 128.565 153.89Q128.315 154.93 127.92499999999998 155.7Q127.52499999999999 156.48 127.10499999999999 156.98999999999998Q126.685 157.51 126.345 157.73L126.345 157.73L126.13499999999999 157.07999999999998Q126.405 156.81 126.695 156.33999999999997Q126.98499999999999 155.87 127.23499999999999 155.18Q127.48499999999999 154.48999999999998 127.63499999999999 153.58999999999997Q127.79499999999999 152.69 127.79499999999999 151.57999999999998L127.79499999999999 151.57999999999998L127.79499999999999 151.5Q127.79499999999999 150.39 127.625 149.48999999999998Q127.46499999999999 148.58999999999997 127.20499999999998 147.89999999999998Q126.945 147.22 126.66499999999999 146.73999999999998Q126.375 146.26999999999998 126.13499999999999 146.01999999999998L126.13499999999999 146.01999999999998L126.345 145.35Q126.685 145.57999999999998 127.10499999999999 146.08999999999997Q127.52499999999999 146.60999999999999 127.92499999999998 147.39Q128.315 148.17 128.565 149.2Q128.825 150.23 128.825 151.51Z " fill="#666666"></path></svg>