<svg xmlns="http://www.w3.org/2000/svg" version="1.1" xmlns:xlink="http://www.w3.org/1999/xlink" viewBox="0 0 350 150"><path d="M238.94 69.96000000000001L238.94 64.4L243.76000000000002 64.4Q245.58 64.4 246.78 63.540000000000006Q247.97 62.68 248.54000000000002 61.08Q249.10000000000002 59.480000000000004 249.10000000000002 57.33L249.10000000000002 57.33Q249.10000000000002 55.44 248.57 53.980000000000004Q248.04000000000002 52.52 246.95000000000002 51.660000000000004Q245.87 50.8 244.21 50.8L244.21 50.8Q242.95000000000002 50.8 241.84 51.480000000000004Q240.73000000000002 52.17 240.10000000000002 53.47Q239.47 54.77 239.47 56.56L239.47 56.56L229.59 56.56Q229.59 52.34 231.5 49.21Q233.42000000000002 46.08 236.69 44.34Q239.96 42.6 243.93 42.6L243.93 42.6Q248.4 42.6 251.77 44.26Q255.15 45.910000000000004 257.04 49.160000000000004Q258.94 52.410000000000004 258.94 57.19L258.94 57.19Q258.94 59.660000000000004 258.03000000000003 61.92Q257.12 64.19 255.34 66.02Q253.56 67.85 251.05 68.9Q248.54000000000002 69.96000000000001 245.34 69.96000000000001L245.34 69.96000000000001L238.94 69.96000000000001ZM243.76000000000002 72.38L238.94 72.38L238.94 67L245.34 67Q248.96 67 251.63 67.93Q254.3 68.87 256.08 70.62Q257.85 72.38 258.73 74.79Q259.61 77.2 259.61 80.15L259.61 80.15Q259.61 83.74000000000001 258.42 86.55000000000001Q257.22 89.36 255.08 91.30000000000001Q252.93 93.23 250.08 94.23Q247.24 95.23 243.9 95.23L243.9 95.23Q241.12 95.23 238.46 94.35Q235.81 93.48 233.70000000000002 91.65Q231.59 89.82 230.36 87.03999999999999Q229.13 84.25999999999999 229.13 80.47L229.13 80.47L238.97 80.47Q238.97 82.37 239.66 83.86Q240.35000000000002 85.35 241.51000000000002 86.2Q242.67000000000002 87.03999999999999 244.14000000000001 87.03999999999999L244.14000000000001 87.03999999999999Q245.87 87.03999999999999 247.13 86.16Q248.4 85.28 249.06 83.7Q249.73000000000002 82.12 249.73000000000002 80.05000000000001L249.73000000000002 80.05000000000001Q249.73000000000002 77.30000000000001 249.03 75.63Q248.33 73.96000000000001 246.99 73.17Q245.65 72.38 243.76000000000002 72.38L243.76000000000002 72.38ZM268.08000000000004 85.88L276.63 85.88L276.63 92.77000000000001Q276.63 96.78 274.66 100.81Q272.69 104.83 269.67 107.4L269.67 107.4L264.39 104.66Q265.27 103.03999999999999 266.12 101.4Q266.96000000000004 99.77000000000001 267.52 97.80000000000001Q268.08000000000004 95.83 268.08000000000004 93.30000000000001L268.08000000000004 93.30000000000001L268.08000000000004 85.88ZM306.47 42.78L306.47 42.78L307.78000000000003 42.78L307.78000000000003 51.15L307.32 51.15Q303.98 51.15 301.5 52.29Q299.02 53.43 297.39 55.59Q295.75 57.760000000000005 294.94 60.8Q294.13 63.84 294.13 67.6L294.13 67.6L294.13 76.21000000000001Q294.13 78.89 294.5 80.92Q294.87 82.96000000000001 295.59000000000003 84.32Q296.31 85.67 297.28000000000003 86.34Q298.25 87.00999999999999 299.41 87.00999999999999L299.41 87.00999999999999Q300.6 87.00999999999999 301.59000000000003 86.30000000000001Q302.57 85.6 303.28000000000003 84.35Q303.98 83.1 304.35 81.43Q304.72 79.75999999999999 304.72 77.73L304.72 77.73Q304.72 75.69 304.33000000000004 73.98Q303.94 72.28 303.24 71.05Q302.54 69.82 301.53000000000003 69.13Q300.53000000000003 68.44 299.3 68.44L299.3 68.44Q297.51 68.44 296.24 69.52Q294.98 70.59 294.31 72.26Q293.64 73.93 293.57 75.76L293.57 75.76L290.62 73.65Q290.76 70.98 291.62 68.6Q292.48 66.23 293.99 64.33Q295.51 62.43 297.62 61.36Q299.72 60.29 302.36 60.29L302.36 60.29Q305.38 60.29 307.69 61.66Q309.99 63.03 311.52 65.42Q313.05 67.81 313.8 70.94Q314.56 74.07 314.56 77.66L314.56 77.66Q314.56 81.38 313.51 84.58Q312.45 87.78 310.52 90.17Q308.58000000000004 92.56 305.82 93.9Q303.06 95.23 299.62 95.23L299.62 95.23Q296.1 95.23 293.27 93.75999999999999Q290.44 92.28 288.42 89.56Q286.4 86.83 285.35 83.1Q284.29 79.38 284.29 74.88L284.29 74.88L284.29 70.91Q284.29 64.72 285.73 59.57Q287.17 54.42 290 50.660000000000004Q292.83000000000004 46.89 296.96000000000004 44.84Q301.1 42.78 306.47 42.78ZM329.33000000000004 69.96000000000001L329.33000000000004 64.4L334.14 64.4Q335.97 64.4 337.17 63.540000000000006Q338.36 62.68 338.92 61.08Q339.49 59.480000000000004 339.49 57.33L339.49 57.33Q339.49 55.44 338.96000000000004 53.980000000000004Q338.43 52.52 337.34000000000003 51.660000000000004Q336.25 50.8 334.6 50.8L334.6 50.8Q333.33000000000004 50.8 332.23 51.480000000000004Q331.12 52.17 330.49 53.47Q329.85 54.77 329.85 56.56L329.85 56.56L319.97 56.56Q319.97 52.34 321.89 49.21Q323.81 46.08 327.08000000000004 44.34Q330.35 42.6 334.32 42.6L334.32 42.6Q338.78000000000003 42.6 342.16 44.26Q345.53000000000003 45.910000000000004 347.43 49.160000000000004Q349.33000000000004 52.410000000000004 349.33000000000004 57.19L349.33000000000004 57.19Q349.33000000000004 59.660000000000004 348.42 61.92Q347.5 64.19 345.73 66.02Q343.95 67.85 341.44 68.9Q338.92 69.96000000000001 335.72 69.96000000000001L335.72 69.96000000000001L329.33000000000004 69.96000000000001ZM334.14 72.38L329.33000000000004 72.38L329.33000000000004 67L335.72 67Q339.35 67 342.02 67.93Q344.69 68.87 346.46000000000004 70.62Q348.24 72.38 349.12 74.79Q350 77.2 350 80.15L350 80.15Q350 83.74000000000001 348.8 86.55000000000001Q347.61 89.36 345.46000000000004 91.30000000000001Q343.32 93.23 340.47 94.23Q337.62 95.23 334.28000000000003 95.23L334.28000000000003 95.23Q331.51 95.23 328.85 94.35Q326.2 93.48 324.09000000000003 91.65Q321.98 89.82 320.75 87.03999999999999Q319.52 84.25999999999999 319.52 80.47L319.52 80.47L329.36 80.47Q329.36 82.37 330.05 83.86Q330.73 85.35 331.89 86.2Q333.05 87.03999999999999 334.53000000000003 87.03999999999999L334.53000000000003 87.03999999999999Q336.25 87.03999999999999 337.52 86.16Q338.78000000000003 85.28 339.45 83.7Q340.12 82.12 340.12 80.05000000000001L340.12 80.05000000000001Q340.12 77.30000000000001 339.42 75.63Q338.71000000000004 73.96000000000001 337.38 73.17Q336.04 72.38 334.14 72.38L334.14 72.38Z " fill="#04780a"></path><svg width="2" height="0" style="opacity: 0; position: absolute; left: -100%; top: -100%; overflow: hidden;" focusable="false" aria-hidden="true"><path d="M12.2 25.43L12.2 19.87L17.02 19.87Q18.84 19.87 20.04 19.01Q21.23 18.15 21.8 16.55Q22.36 14.95 22.36 12.8L22.36 12.8Q22.36 10.91 21.83 9.45Q21.3 7.99 20.21 7.13Q19.13 6.27 17.47 6.27L17.47 6.27Q16.21 6.27 15.1 6.95Q13.99 7.64 13.36 8.94Q12.73 10.24 12.73 12.03L12.73 12.03L2.85 12.03Q2.85 7.81 4.76 4.68Q6.68 1.55 9.95 -0.19Q13.22 -1.93 17.19 -1.93L17.19 -1.93Q21.66 -1.93 25.03 -0.27Q28.41 1.38 30.3 4.63Q32.2 7.88 32.2 12.66L32.2 12.66Q32.2 15.13 31.29 17.39Q30.38 19.66 28.6 21.49Q26.82 23.32 24.31 24.37Q21.8 25.43 18.6 25.43L18.6 25.43L12.2 25.43ZM17.02 27.85L12.2 27.85L12.2 22.47L18.6 22.47Q22.22 22.47 24.89 23.4Q27.56 24.34 29.34 26.09Q31.11 27.85 31.99 30.26Q32.87 32.67 32.87 35.62L32.87 35.62Q32.87 39.21 31.68 42.02Q30.48 44.83 28.34 46.77Q26.19 48.7 23.34 49.7Q20.5 50.7 17.16 50.7L17.16 50.7Q14.38 50.7 11.72 49.82Q9.07 48.95 6.96 47.12Q4.85 45.29 3.62 42.51Q2.39 39.73 2.39 35.94L2.39 35.94L12.23 35.94Q12.23 37.84 12.92 39.33Q13.61 40.82 14.77 41.67Q15.93 42.51 17.4 42.51L17.4 42.51Q19.13 42.51 20.39 41.63Q21.66 40.75 22.32 39.17Q22.99 37.59 22.99 35.52L22.99 35.52Q22.99 32.77 22.29 31.1Q21.59 29.43 20.25 28.64Q18.91 27.85 17.02 27.85L17.02 27.85ZM41.34 41.35L49.89 41.35L49.89 48.24Q49.89 52.25 47.92 56.28Q45.95 60.3 42.93 62.87L42.93 62.87L37.65 60.13Q38.53 58.51 39.38 56.87Q40.22 55.24 40.78 53.27Q41.34 51.3 41.34 48.77L41.34 48.77L41.34 41.35ZM79.73 -1.75L79.73 -1.75L81.04 -1.75L81.04 6.62L80.58 6.62Q77.24 6.62 74.76 7.76Q72.28 8.9 70.65 11.06Q69.01 13.23 68.2 16.27Q67.39 19.31 67.39 23.07L67.39 23.07L67.39 31.68Q67.39 34.36 67.76 36.39Q68.13 38.43 68.85 39.79Q69.57 41.14 70.54 41.81Q71.51 42.48 72.67 42.48L72.67 42.48Q73.86 42.48 74.85 41.77Q75.83 41.07 76.54 39.82Q77.24 38.57 77.61 36.9Q77.98 35.23 77.98 33.2L77.98 33.2Q77.98 31.16 77.59 29.45Q77.2 27.75 76.5 26.52Q75.8 25.29 74.79 24.6Q73.79 23.91 72.56 23.91L72.56 23.91Q70.77 23.91 69.5 24.99Q68.24 26.06 67.57 27.73Q66.9 29.4 66.83 31.23L66.83 31.23L63.88 29.12Q64.02 26.45 64.88 24.07Q65.74 21.7 67.25 19.8Q68.77 17.9 70.88 16.83Q72.98 15.76 75.62 15.76L75.62 15.76Q78.64 15.76 80.95 17.13Q83.25 18.5 84.78 20.89Q86.31 23.28 87.06 26.41Q87.82 29.54 87.82 33.13L87.82 33.13Q87.82 36.85 86.77 40.05Q85.71 43.25 83.78 45.64Q81.84 48.03 79.08 49.37Q76.32 50.7 72.88 50.7L72.88 50.7Q69.36 50.7 66.53 49.23Q63.7 47.75 61.68 45.03Q59.66 42.3 58.61 38.57Q57.55 34.85 57.55 30.35L57.55 30.35L57.55 26.38Q57.55 20.19 58.99 15.04Q60.43 9.89 63.26 6.13Q66.09 2.36 70.22 0.31Q74.36 -1.75 79.73 -1.75ZM102.59 25.43L102.59 19.87L107.4 19.87Q109.23 19.87 110.43 19.01Q111.62 18.15 112.18 16.55Q112.75 14.95 112.75 12.8L112.75 12.8Q112.75 10.91 112.22 9.45Q111.69 7.99 110.6 7.13Q109.51 6.27 107.86 6.27L107.86 6.27Q106.59 6.27 105.49 6.95Q104.38 7.64 103.75 8.94Q103.11 10.24 103.11 12.03L103.11 12.03L93.23 12.03Q93.23 7.81 95.15 4.68Q97.07 1.55 100.34 -0.19Q103.61 -1.93 107.58 -1.93L107.58 -1.93Q112.04 -1.93 115.42 -0.27Q118.79 1.38 120.69 4.63Q122.59 7.88 122.59 12.66L122.59 12.66Q122.59 15.13 121.68 17.39Q120.76 19.66 118.99 21.49Q117.21 23.32 114.7 24.37Q112.18 25.43 108.98 25.43L108.98 25.43L102.59 25.43ZM107.4 27.85L102.59 27.85L102.59 22.47L108.98 22.47Q112.61 22.47 115.28 23.4Q117.95 24.34 119.72 26.09Q121.5 27.85 122.38 30.26Q123.26 32.67 123.26 35.62L123.26 35.62Q123.26 39.21 122.06 42.02Q120.87 44.83 118.72 46.77Q116.58 48.7 113.73 49.7Q110.88 50.7 107.54 50.7L107.54 50.7Q104.77 50.7 102.11 49.82Q99.46 48.95 97.35 47.12Q95.24 45.29 94.01 42.51Q92.78 39.73 92.78 35.94L92.78 35.94L102.62 35.94Q102.62 37.84 103.31 39.33Q103.99 40.82 105.15 41.67Q106.31 42.51 107.79 42.51L107.79 42.51Q109.51 42.51 110.78 41.63Q112.04 40.75 112.71 39.17Q113.38 37.59 113.38 35.52L113.38 35.52Q113.38 32.77 112.68 31.1Q111.97 29.43 110.64 28.64Q109.3 27.85 107.4 27.85L107.4 27.85Z "></path></svg><g><rect width="32.226" height="29.2" x="2" y="118.8" fill="#0b3191" fill-opacity="0.5" stroke="#0a1b45" rx="3" ry="3" stroke-width="4"></rect><rect width="32.226" height="58.4" x="48.226" y="89.6" fill="#0b3191" fill-opacity="0.5" stroke="#0a1b45" rx="3" ry="3" stroke-width="4"></rect><rect width="32.226" height="87.6" x="94.452" y="60.4" fill="#0b3191" fill-opacity="0.5" stroke="#0a1b45" rx="3" ry="3" stroke-width="4"></rect><rect width="32.226" height="116.8" x="140.678" y="31.2" fill="#ffffff" stroke="#0a1b45" rx="3" ry="3" stroke-width="4"></rect><rect width="32.226" height="146" x="186.904" y="2" fill="#ffffff" stroke="#0a1b45" rx="3" ry="3" stroke-width="4"></rect></g></svg>